<?xml version="1.0" encoding="utf-8"?>
<!-- Generator: Adobe Illustrator 21.1.0, SVG Export Plug-In . SVG Version: 6.00 Build 0)  -->
<svg version="1.1" id="レイヤー_1" xmlns="http://www.w3.org/2000/svg" xmlns:xlink="http://www.w3.org/1999/xlink" x="0px"
	 y="0px" viewBox="0 0 196.5 148.7" style="enable-background:new 0 0 196.5 148.7;" xml:space="preserve">
<style type="text/css">
	.st0{fill:#FFFFFF;}
</style>
<g>
	<path class="st0" d="M107.8,104.8H88.7l-7.9-8.1c-8.4,5.4-17.8,8.1-28.1,8.1c-13.4,0-25.3-4.5-35.7-13.6C5.6,81.2,0,68.4,0,52.9
		C0,37.6,5.3,25,16,14.8C26.4,4.9,38.7,0,52.8,0c12.8,0,24.3,4.3,34.5,13c12.2,10.4,18.3,23.9,18.3,40.6c0,13.1-4.8,24.7-14.5,34.9
		L107.8,104.8z M65.9,62.9l14.7,14.6c6.5-6.7,9.7-15,9.7-24.9c0-10.9-3.6-20-10.8-27.3s-16.1-11-26.8-11c-10.8,0-19.7,3.7-26.7,11
		c-7,7.3-10.5,16.5-10.5,27.7c0,10.9,3.6,19.8,10.9,26.8c7.5,7.2,16.2,10.7,25.8,10.7c6.6,0,12.5-1.5,17.9-4.5l-23.8-23H65.9z"/>
	<path class="st0" d="M160.3,60.1l32.4,44.6h-19.3l-29.9-42.9h-2.8v42.9h-15.8V0h18.5c13.8,0,23.8,2.6,30,7.8
		c6.8,5.8,10.2,13.4,10.2,22.9c0,7.4-2.1,13.8-6.4,19.1C172.8,55.2,167.2,58.6,160.3,60.1z M140.6,48.1h5c15,0,22.5-5.7,22.5-17.2
		c0-10.7-7.3-16.1-21.8-16.1h-5.6V48.1z"/>
</g>
<g>
	<path class="st0" d="M47.6,115.6c0,0-3.5,1.7-5.4,3.9c-0.6,0.8-2.7,3.6-3.1,4.3c-0.3,0.7-2.9,5.5-4.5,8.3c-1.3,2.2-2.1,3.5-3.1,4.8
		c-1.3,1.6-3.3,3.9-6,6c-1.4,1.2-4.8,3-7.3,3.7c-2.6,0.7-4.2,0.6-5.2,0.6c-3.4,0-8.2-0.5-10.8-1.5c0.9-0.5,3.6-2.4,4.2-2.9
		c1.5,1.4,5.3,2.7,8.3,2.7c2.9,0,5.2-1.5,7.1-3c1.8-1.4,3.8-3.2,5.8-7.7c2.1-4.5,4.2-10.8,5.3-12.7c0.9-1.6,2.2-3.3,2.7-3.8H21.3
		c-1.2,1.9-3.5,5.2-6.1,7.2c-3.9,3-7.7,5.4-14.9,7.1c3.9-2.1,7.6-4.8,9.9-8c2.9-4.1,4.1-8.9,4.1-8.9H47.6z"/>
	<path class="st0" d="M94.6,114.5c0,0,0.9,0,1.3,0.2c0.5,0.2,0.5,0.8,0.5,0.8c0,0.8-0.9,2.1-1.8,2.6c-0.9,0.8-2.2,1.9-4.4,3.2
		c-5.3,3.5-7.2,4.2-9.5,5.4l-0.8,0.4v16.2c0,0,0.2,1.5,0.6,2c0.4,0.5,0.4,0.5,0.9,0.7c0.5,0.3,1.5,0.5,1.5,0.5
		c0.2,0,0.4,0.2,0.4,0.3c0,0.2-0.2,0.3-0.4,0.3H70.6c-0.2,0-0.4-0.1-0.4-0.3c0-0.2,0.1-0.3,0.3-0.3l0.9-0.4c0.4-0.2,0.5-0.3,1-0.6
		s0.5-0.5,0.6-0.9l0.1-0.3v-14.4c-1.9,0.8-3.6,1.5-4.9,1.9c-3.2,1.2-7.2,2.4-10,3c-2.9,0.7-6,0.9-6,0.9l3.5-4c0,0,1.1,0.7,2.6,0.9
		c1.3,0.2,3,0,4.3-0.2c2.9-0.4,9.2-3.5,11.6-4.9c1.4-0.9,4.4-2.7,6.7-4.4c1.5-1.2,2.7-2.4,3.3-3c1.2-1.3,2-2.7,1.8-4
		c-0.2-1.2-3.2-1.8-3.2-1.8H94.6z"/>
	<path class="st0" d="M146.8,114.8c0,0-2,1-3.9,3.6c-3,4.3-5.2,8.3-7.7,12.2c-0.2,0.4-0.5,0.9-0.8,1.3c9.5,1.7,16.9,10.8,16.9,15.5
		h-7.3c-1.1-7.6-5.9-11.8-10.4-14.3c-1.5,2.2-3.5,4.7-6.9,7.3c-5.4,4.2-12.2,7-17.4,7c-2.8,0-6.2-0.8-8.1-1.7
		c1.2-0.7,2.6-1.4,3.5-2.3c1.9,1.6,2.9,2.2,5.9,2.2c3.5,0,8-2.1,11-5c2.3-2.3,4.5-5,6.7-9.4c2.5-5,2.9-6.4,4.6-9.2
		c0.8-1.5,2.6-3.6,4.2-4.5h-21.8c-1.1,0-1.9,0.3-2.9,1c-1.2,0.8-2,2.1-2,2.1h-0.8l1.3-5.7H146.8z M151.2,114.8l-1.9,3.7
		c-0.4,0.9-1.2,1.5-1.9,1.9c-1.2,0.6-3.5,0.5-3.5,0.5s0.5-0.2,0.8-0.4c1-0.5,1.2-1.4,1.6-2c0.7-1.2,1.5-2.9,1.6-3.2
		c0.4-0.7,0.8-1.4,1.5-1.9c1-0.7,3.4-0.9,3.4-0.9S151.8,113.7,151.2,114.8z M155.6,114.8c-0.2,0.4-1.3,2.5-1.9,3.7
		c-0.5,0.9-1.2,1.5-1.9,1.9c-1.2,0.6-3.5,0.5-3.5,0.5l0.8-0.4c1-0.5,1.2-1.4,1.6-2c0.7-1.2,1.5-2.9,1.6-3.2c0.4-0.7,0.8-1.4,1.5-1.9
		c0.9-0.7,3.3-0.9,3.3-0.9S156.2,113.7,155.6,114.8z"/>
</g>
<g>
	<g>
		<path class="st0" d="M187,111.4c2.7-0.1,4.9,0.7,6.8,2.3c3.4,3,3.7,7.7,0.4,11c-1.3,1.4-3,2-4.8,2.6c-0.7,0.2-1.4,0.4-2.1,0.6
			c-2,0.5-3.5,1.5-4.7,3.2c-0.7,0.9-1.3,1.9-1.9,2.9c-0.3,0.5-0.6,0.9-1.3,0.6c-0.6-0.3-0.7-0.8-0.3-1.5c1.7-2.7,3.6-5.3,6.1-7.4
			c1.2-1,2.6-1.9,3.6-3.1c1-1.3,1.6-2.7,1.7-4.4c0.2-3.3-3.4-5.7-6.3-5.2c-0.5,0.1-1,0.3-1.4,0.4c-0.5,0.2-0.6,0.4-0.1,0.7
			c0.9,0.6,1.5,1.4,1.5,2.5c0.1,1.2-0.8,2.3-2.2,2.8c-1,0.3-2.2-0.2-2.8-1.1c-0.7-1.1-0.7-2.5,0.1-3.5c1.7-2.2,4.2-3,6.9-3.3
			C186.5,111.3,186.8,111.4,187,111.4z"/>
		<path class="st0" d="M186.6,137.5c0,0.4-0.2,0.7-0.3,1.1c-0.2,0.7-0.3,1.4,0.1,2.1c0.2,0.3,0.1,0.6-0.1,0.9
			c-0.7,1.2-1.7,1.8-2.9,2.2c-0.1,0-0.3,0.1-0.4,0c-0.8-0.6-1.9-0.6-2.5-1.4c-0.8-0.9-1.5-1.9-2.2-2.9c-0.2-0.3-0.2-0.6,0-0.9
			c1-1.7,2.4-2.9,4.2-3.4c0.9-0.3,2.1,0.1,3.1,0.3C186.3,135.8,186.6,136.6,186.6,137.5z M182.9,136.1c-0.1-0.5-0.5-0.3-0.7-0.2
			c-1.2,0.5-2.2,1.4-3.1,2.4c-0.1,0.2-0.4,0.4-0.2,0.6c0.2,0.2,0.4,0.1,0.6,0c1.2-0.6,2.2-1.4,3.1-2.4
			C182.8,136.4,182.9,136.2,182.9,136.1z M186,137.4c0-0.5-0.2-0.9-0.5-1.2c-0.2-0.3-0.6-0.3-0.8-0.1c-0.4,0.2-0.1,0.5,0,0.7
			c0.2,0.3,0.4,0.6,0.6,0.9c0.1,0.2,0.2,0.5,0.5,0.4C186,137.9,185.9,137.6,186,137.4z"/>
		<path class="st0" d="M170.8,140.4c0.4,0.2,0.9,0.1,1.5-0.3c0.3-0.2,0.9,0,1.2,0.2c1.3,0.7,2.5,1.6,3.4,2.8c0.4,0.5,0.5,1,0,1.6
			c-0.4,0.4-0.7,0.9-1,1.4c-0.7,1.3-2,1.9-3.3,2.5c-0.2,0.1-0.5,0.1-0.7,0c-0.9-0.4-1.7-0.8-2.4-1.6c-0.4-0.5-0.8-1-0.4-1.8
			c0.3-0.6,0.1-1.3-0.1-2c-0.4-1-0.2-1.8,0.5-2.5C169.9,140.5,170.2,140.3,170.8,140.4z M176.1,143.9c0.2,0,0.3,0.1,0.4-0.1
			c0.1-0.2,0-0.3-0.1-0.5c-0.9-1.2-2-2-3.3-2.6c-0.2-0.1-0.5-0.2-0.7,0c-0.2,0.2,0,0.5,0.2,0.7c0.9,1.1,1.9,1.9,3.2,2.4
			C176,143.9,176,143.9,176.1,143.9z M169.5,142.4c0,0.1-0.1,0.5,0.2,0.6c0.3,0.1,0.4-0.2,0.5-0.4c0.2-0.3,0.4-0.6,0.6-0.9
			c0.1-0.2,0.4-0.5,0.1-0.7c-0.3-0.2-0.6-0.2-0.9,0C169.6,141.4,169.4,141.8,169.5,142.4z"/>
		<path class="st0" d="M171.4,116.6c0.3,1.4,0.3,5.6,0.6,8.6c0.3,3.3,0.6,7,1.3,9.9c0.2,0.9,0.5,2,0.7,2.7c0.1,0.4-0.3,0.7-0.7,0.8
			c-0.4,0.1-0.9-0.1-1-0.4c-0.1-0.7-0.2-1.5-0.4-2.5c-0.7-3.1-1.9-6.6-3-9.5c-1-2.6-3-6.9-3.3-8.3c-0.3-1.5,0.3-2.8,2.4-3.2
			C169.9,114.3,171,115.1,171.4,116.6z"/>
	</g>
</g>
</svg>
