<?xml version="1.0" encoding="utf-8"?>
<!-- Generator: Adobe Illustrator 21.1.0, SVG Export Plug-In . SVG Version: 6.00 Build 0)  -->
<svg version="1.1" id="レイヤー_1" xmlns="http://www.w3.org/2000/svg" xmlns:xlink="http://www.w3.org/1999/xlink" x="0px"
	 y="0px" viewBox="0 0 209.8 148.7" style="enable-background:new 0 0 209.8 148.7;" xml:space="preserve">
<style type="text/css">
	.st0{fill:#FFFFFF;}
</style>
<path class="st0" d="M107.8,104.8H88.6l-7.9-8.1c-8.4,5.4-17.8,8.1-28.1,8.1c-13.4,0-25.3-4.5-35.7-13.6C5.6,81.2,0,68.5,0,52.9
	C0,37.7,5.3,25,16,14.8C26.4,4.9,38.6,0,52.8,0c12.8,0,24.3,4.3,34.5,13c12.2,10.4,18.3,23.9,18.3,40.6c0,13.1-4.8,24.7-14.5,34.9
	L107.8,104.8z M65.8,63l14.7,14.6c6.5-6.7,9.7-15,9.7-24.9c0-10.9-3.6-20-10.8-27.3s-16.1-11-26.8-11c-10.8,0-19.7,3.7-26.7,11
	c-7.1,7.3-10.6,16.5-10.6,27.7c0,10.9,3.6,19.8,10.9,26.8c7.5,7.2,16.2,10.7,25.8,10.7c6.6,0,12.5-1.5,17.9-4.5l-23.8-23L65.8,63
	L65.8,63z"/>
<path class="st0" d="M50.9,114.7c0,0-3.6,1.7-5.7,3.9c-0.7,0.8-2.8,3.6-3.2,4.3c-0.3,0.7-3.1,5.5-4.7,8.3c-1.4,2.2-2.2,3.5-3.3,4.8
	c-1.4,1.6-3.5,3.9-6.3,6c-1.5,1.2-5,3-7.7,3.7c-2.8,0.7-4.4,0.6-5.4,0.6c-3.6,0-8.6-0.5-11.3-1.5c1-0.5,3.8-2.4,4.4-2.9
	c1.5,1.4,5.6,2.7,8.8,2.7c3,0,5.5-1.5,7.5-3c1.8-1.4,3.9-3.2,6.1-7.7s4.4-10.8,5.5-12.7c1-1.6,2.3-3.3,2.8-3.8h-15
	c-1.3,1.9-3.7,5.2-6.4,7.2c-4.1,3-8.1,5.4-15.6,7.1c4.1-2.1,8-4.8,10.4-8c3-4.1,4.3-8.9,4.3-8.9h34.8V114.7z"/>
<path class="st0" d="M100.3,113.6c0,0,0.9,0,1.4,0.2c0.6,0.2,0.6,0.8,0.6,0.8c0,0.8-0.9,2.1-1.9,2.6c-1,0.8-2.3,1.9-4.6,3.2
	c-5.5,3.5-7.6,4.2-10,5.4l-0.9,0.4v16.2c0,0,0.2,1.5,0.7,2c0.4,0.5,0.4,0.5,0.9,0.7c0.6,0.3,1.5,0.5,1.5,0.5c0.2,0,0.4,0.2,0.4,0.3
	c0,0.2-0.2,0.3-0.4,0.3H75.1c-0.2,0-0.4-0.1-0.4-0.3s0.1-0.3,0.3-0.3l0.9-0.4c0.4-0.2,0.6-0.3,1-0.6s0.6-0.5,0.7-0.9l0.1-0.3V129
	c-2,0.8-3.8,1.5-5.1,1.9c-3.4,1.2-7.5,2.4-10.5,3c-3.1,0.7-6.3,0.9-6.3,0.9l3.6-4c0,0,1.2,0.7,2.8,0.9c1.4,0.2,3.1,0,4.6-0.2
	c3.1-0.4,9.6-3.5,12.2-4.9c1.5-0.9,4.6-2.7,7-4.4c1.6-1.2,2.8-2.4,3.5-3c1.3-1.3,2.1-2.7,1.8-4c-0.2-1.2-3.3-1.8-3.3-1.8h12.3V113.6
	z"/>
<path class="st0" d="M155.1,113.8c0,0-2.1,1-4.1,3.6c-3.1,4.3-5.4,8.3-8.1,12.2c-0.2,0.4-0.6,0.9-0.9,1.3
	c9.9,1.7,17.8,10.8,17.8,15.5h-7.7c-1.1-7.6-6.2-11.8-10.9-14.3c-1.6,2.2-3.7,4.7-7.2,7.3c-5.7,4.2-12.8,7-18.3,7
	c-3,0-6.5-0.8-8.5-1.7c1.3-0.7,2.7-1.4,3.7-2.3c2,1.6,3.1,2.2,6.2,2.2c3.7,0,8.4-2.1,11.5-5c2.5-2.3,4.7-5,7-9.4
	c2.6-5,3.1-6.4,4.8-9.2c0.9-1.5,2.8-3.6,4.4-4.5h-22.9c-1.2,0-2,0.3-3,1c-1.2,0.8-2.1,2.1-2.1,2.1h-0.9l1.4-5.7h37.8V113.8z"/>
<path class="st0" d="M159.7,113.9l-2,3.7c-0.4,0.9-1.2,1.5-2,1.9c-1.3,0.6-3.7,0.5-3.7,0.5s0.5-0.2,0.9-0.4c1-0.5,1.3-1.4,1.7-2
	c0.7-1.2,1.6-2.9,1.7-3.2c0.4-0.7,0.8-1.4,1.6-1.9c1-0.7,3.6-0.9,3.6-0.9S160.3,112.7,159.7,113.9z"/>
<path class="st0" d="M164.3,113.9c-0.2,0.4-1.4,2.5-2,3.7c-0.5,0.9-1.2,1.5-2,1.9c-1.2,0.6-3.6,0.5-3.6,0.5l0.9-0.4
	c1-0.5,1.3-1.4,1.7-2c0.7-1.2,1.5-2.9,1.7-3.2c0.4-0.7,0.8-1.4,1.6-1.9c1-0.7,3.5-0.9,3.5-0.9S165,112.7,164.3,113.9z"/>
<path class="st0" d="M195.5,111.3c2.7-0.1,4.9,0.7,6.8,2.3c3.4,3,3.7,7.7,0.4,11c-1.3,1.4-3,2-4.8,2.6c-0.7,0.2-1.4,0.4-2.1,0.6
	c-2,0.5-3.5,1.5-4.7,3.2c-0.7,0.9-1.3,1.9-1.9,2.9c-0.3,0.5-0.6,0.9-1.3,0.6c-0.6-0.3-0.7-0.8-0.3-1.5c1.7-2.7,3.6-5.3,6.1-7.4
	c1.2-1,2.6-1.9,3.6-3.1c1-1.3,1.6-2.7,1.7-4.4c0.2-3.3-3.4-5.7-6.3-5.2c-0.5,0.1-1,0.3-1.4,0.4c-0.5,0.2-0.6,0.4-0.1,0.7
	c0.9,0.6,1.5,1.4,1.5,2.5c0.1,1.2-0.8,2.3-2.2,2.8c-1,0.3-2.2-0.2-2.8-1.1c-0.7-1.1-0.7-2.5,0.1-3.5c1.7-2.2,4.2-3,6.9-3.3
	C195,111.3,195.3,111.3,195.5,111.3z"/>
<path class="st0" d="M195.1,137.4c0,0.4-0.2,0.7-0.3,1.1c-0.2,0.7-0.3,1.4,0.1,2.1c0.2,0.3,0.1,0.6-0.1,0.9
	c-0.7,1.2-1.7,1.8-2.9,2.2c-0.1,0-0.3,0.1-0.4,0c-0.8-0.6-1.9-0.6-2.5-1.4c-0.8-0.9-1.5-1.9-2.2-2.9c-0.2-0.3-0.2-0.6,0-0.9
	c1-1.7,2.4-2.9,4.2-3.4c0.9-0.3,2.1,0.1,3.1,0.3C194.8,135.7,195.1,136.6,195.1,137.4z M191.4,136.1c-0.1-0.5-0.5-0.3-0.7-0.2
	c-1.2,0.5-2.2,1.4-3.1,2.4c-0.1,0.2-0.4,0.4-0.2,0.6c0.2,0.2,0.4,0.1,0.6,0c1.2-0.6,2.2-1.4,3.1-2.4
	C191.3,136.3,191.4,136.2,191.4,136.1z M194.5,137.4c0-0.5-0.2-0.9-0.5-1.2c-0.2-0.3-0.6-0.3-0.8-0.1c-0.4,0.2-0.1,0.5,0,0.7
	c0.2,0.3,0.4,0.6,0.6,0.9c0.1,0.2,0.2,0.5,0.5,0.4C194.5,137.9,194.4,137.6,194.5,137.4z"/>
<path class="st0" d="M179.3,140.4c0.4,0.2,0.9,0.1,1.5-0.3c0.3-0.2,0.9,0,1.2,0.2c1.3,0.7,2.5,1.6,3.4,2.8c0.4,0.5,0.5,1,0,1.6
	c-0.4,0.4-0.7,0.9-1,1.4c-0.7,1.3-2,1.9-3.3,2.5c-0.2,0.1-0.5,0.1-0.7,0c-0.9-0.4-1.7-0.8-2.4-1.6c-0.4-0.5-0.8-1-0.4-1.8
	c0.3-0.6,0.1-1.3-0.1-2c-0.4-1-0.2-1.8,0.5-2.5C178.4,140.4,178.7,140.3,179.3,140.4z M184.6,143.9c0.2,0,0.3,0.1,0.4-0.1
	c0.1-0.2,0-0.3-0.1-0.5c-0.9-1.2-2-2-3.3-2.6c-0.2-0.1-0.5-0.2-0.7,0c-0.2,0.2,0,0.5,0.2,0.7c0.9,1.1,1.9,1.9,3.2,2.4
	C184.5,143.8,184.5,143.8,184.6,143.9z M178,142.4c0,0.1-0.1,0.5,0.2,0.6c0.3,0.1,0.4-0.2,0.5-0.4c0.2-0.3,0.4-0.6,0.6-0.9
	c0.1-0.2,0.4-0.5,0.1-0.7s-0.6-0.2-0.9,0C178.1,141.4,177.9,141.8,178,142.4z"/>
<path class="st0" d="M179.9,116.6c0.3,1.4,0.3,5.6,0.6,8.6c0.3,3.3,0.6,7,1.3,9.9c0.2,0.9,0.5,2,0.7,2.7c0.1,0.4-0.3,0.7-0.7,0.8
	s-0.9-0.1-1-0.4c-0.1-0.7-0.2-1.5-0.4-2.5c-0.7-3.1-1.9-6.6-3-9.5c-1-2.6-3-6.9-3.3-8.3c-0.3-1.5,0.3-2.8,2.4-3.2
	C178.4,114.3,179.5,115,179.9,116.6z"/>
<g>
	<path class="st0" d="M142.4,103.7c0-11.2,0.1-25.5,0.2-36.7c0-2.4,0.2-2.2-2-2.1c-2.6,0.2-6.3-0.3-8.8-1.4c-1.3-0.6-2-1.3-2.2-2.9
		c-1.1-10.2,6.5-19.9,16.3-20.7c2.7-0.2,4.6-1.3,6.4-3.2c6.9-7.3,20.8-17.1,26.9-17.5c-1.2,3.6-3.3,6.7-5.3,9.3
		c2.8-0.5,3.4-0.3,6-0.2c-3,6.1-14.8,14.8-22,18.9c-0.4,0.2-0.6,0.6-0.6,1v0.9c0,0.5,0.3,1,0.8,1.2c9.1,4.8,18.7,15.2,22.5,24.9
		c2.5,6.2,4.8,18.1,5.4,24.8c0,0,2.5-5,8.7-3.1c0.1,7.2-4.2,7.8-4.9,7.9h20l-28.3-47.1c3.4-1.5,17.4-8.8,17.4-30.7
		c0-14.8-17-26.6-30.1-26.8C153,0,120.4,0.1,120.4,0.1v104.7h21.3h-0.2C141.5,104.8,142.4,104.8,142.4,103.7z"/>
	<path class="st0" d="M189.8,104.8h-48.1h48H189.8z"/>
</g>
</svg>
